<svg id="svg" version="1.1" xmlns="http://www.w3.org/2000/svg" xmlns:xlink="http://www.w3.org/1999/xlink" width="400" height="48.794599807135974" viewBox="0, 0, 400,48.794599807135974"><g id="svgg"><path class="path0" id="path0" d="M0.000 24.250 L 0.000 48.500 5.417 48.500 L 10.833 48.500 10.833 34.306 L 10.833 20.111 11.329 20.597 C 11.601 20.865,11.826 21.166,11.829 21.266 C 11.831 21.367,11.965 21.603,12.125 21.791 C 12.285 21.979,12.829 22.720,13.333 23.438 C 13.838 24.156,14.490 24.993,14.783 25.297 C 15.077 25.601,15.320 25.884,15.325 25.925 C 15.330 25.966,15.333 26.061,15.333 26.135 C 15.333 26.210,15.474 26.422,15.647 26.607 C 15.819 26.792,16.159 27.259,16.403 27.646 C 16.647 28.032,17.113 28.701,17.438 29.132 C 18.656 30.749,19.188 31.481,20.061 32.750 C 20.377 33.208,20.830 33.801,21.068 34.068 C 21.305 34.334,21.500 34.615,21.500 34.693 C 21.500 34.770,21.631 34.967,21.792 35.130 C 21.952 35.293,22.301 35.761,22.567 36.171 C 22.833 36.581,23.152 36.977,23.275 37.050 C 23.399 37.123,23.500 37.261,23.500 37.357 C 23.500 37.554,25.315 40.074,25.829 40.589 C 26.015 40.776,26.167 40.994,26.167 41.074 C 26.167 41.154,26.454 41.601,26.805 42.068 C 27.155 42.535,27.784 43.381,28.202 43.950 C 28.620 44.518,29.020 44.930,29.091 44.866 C 29.162 44.802,29.159 44.855,29.085 44.984 C 29.000 45.129,29.043 45.286,29.197 45.400 C 29.334 45.501,29.639 45.890,29.875 46.265 C 30.111 46.640,30.408 47.052,30.536 47.182 C 30.664 47.311,30.912 47.660,31.087 47.958 L 31.405 48.500 36.869 48.500 L 42.333 48.500 42.333 24.250 L 42.333 0.000 36.920 0.000 L 31.507 0.000 31.502 14.113 C 31.499 21.875,31.478 28.245,31.455 28.268 C 31.432 28.290,30.814 27.486,30.081 26.479 C 29.349 25.472,28.525 24.355,28.250 23.997 C 27.975 23.638,27.412 22.858,27.000 22.263 C 26.587 21.668,26.189 21.178,26.115 21.174 C 26.041 21.170,26.024 21.096,26.077 21.010 C 26.130 20.924,26.071 20.793,25.944 20.719 C 25.818 20.644,25.506 20.246,25.251 19.833 C 24.795 19.096,24.690 18.959,24.008 18.208 C 23.820 18.002,23.656 17.777,23.643 17.708 C 23.621 17.589,23.395 17.263,22.375 15.878 C 22.123 15.535,21.712 14.935,21.462 14.544 C 21.212 14.153,20.931 13.833,20.837 13.833 C 20.743 13.833,20.665 13.740,20.662 13.625 C 20.659 13.453,19.731 12.120,18.428 10.417 C 18.288 10.233,17.890 9.686,17.545 9.200 C 16.808 8.164,15.358 6.165,14.741 5.333 C 14.503 5.012,13.943 4.225,13.497 3.583 C 13.051 2.942,12.572 2.288,12.432 2.131 C 12.292 1.973,11.995 1.554,11.770 1.199 C 10.959 -0.086,11.415 0.000,5.405 0.000 L 0.000 0.000 0.000 24.250 M51.760 0.352 C 50.175 0.897,48.921 2.009,48.000 3.687 L 47.417 4.750 47.398 23.917 C 47.378 43.264,47.398 43.983,47.987 44.614 C 48.166 44.807,48.270 45.008,48.217 45.060 C 47.689 45.588,51.472 48.572,52.278 48.263 C 52.394 48.218,52.534 48.253,52.588 48.341 C 52.650 48.440,59.623 48.500,71.260 48.500 L 89.833 48.500 89.833 43.667 L 89.833 38.833 74.000 38.833 L 58.167 38.833 58.167 32.668 L 58.167 26.502 73.958 26.459 L 89.750 26.417 89.794 21.595 C 89.829 17.848,89.792 16.743,89.628 16.639 C 89.512 16.565,82.385 16.504,73.792 16.503 L 58.167 16.500 58.167 13.083 L 58.167 9.667 73.991 9.667 L 89.814 9.667 89.828 4.833 L 89.842 -0.000 71.296 0.006 C 53.063 0.011,52.733 0.017,51.760 0.352 M92.522 1.458 C 92.804 2.260,93.098 2.994,93.175 3.089 C 93.252 3.184,93.515 3.822,93.760 4.506 C 94.005 5.190,94.262 5.825,94.331 5.917 C 94.401 6.008,94.701 6.758,95.000 7.583 C 95.299 8.408,95.603 9.160,95.677 9.254 C 95.751 9.348,95.938 9.796,96.092 10.249 C 96.246 10.703,96.541 11.451,96.748 11.912 C 96.955 12.373,97.290 13.199,97.491 13.748 C 97.693 14.297,97.918 14.822,97.992 14.915 C 98.065 15.007,98.331 15.683,98.583 16.417 C 98.835 17.150,99.131 17.900,99.240 18.083 C 99.350 18.267,99.615 18.904,99.829 19.500 C 100.044 20.096,100.320 20.771,100.442 21.000 C 100.565 21.229,100.894 22.051,101.175 22.827 C 101.455 23.602,101.743 24.315,101.814 24.410 C 101.885 24.505,102.114 25.071,102.322 25.667 C 102.530 26.262,102.794 26.900,102.908 27.083 C 103.022 27.267,103.281 27.916,103.483 28.527 C 103.685 29.138,103.964 29.681,104.103 29.734 C 104.241 29.787,104.313 29.899,104.262 29.981 C 104.211 30.064,104.270 30.383,104.393 30.691 C 104.517 30.998,104.677 31.400,104.751 31.583 C 104.824 31.767,104.903 32.007,104.926 32.116 C 104.949 32.226,105.120 32.639,105.306 33.033 C 105.491 33.427,105.847 34.313,106.096 35.000 C 106.344 35.688,106.601 36.325,106.667 36.417 C 106.732 36.508,106.993 37.146,107.247 37.833 C 107.501 38.521,107.793 39.158,107.896 39.250 C 107.999 39.342,108.107 39.567,108.136 39.750 C 108.205 40.196,108.758 41.689,109.255 42.776 C 109.477 43.261,109.706 43.847,109.764 44.079 C 109.822 44.311,109.941 44.500,110.028 44.500 C 110.115 44.500,110.148 44.562,110.102 44.637 C 110.055 44.712,110.111 44.956,110.227 45.179 C 110.342 45.401,110.653 46.183,110.917 46.917 C 111.542 48.650,110.808 48.503,118.561 48.457 L 125.372 48.417 125.789 47.250 C 126.017 46.608,126.278 45.993,126.367 45.882 C 126.456 45.772,126.473 45.591,126.405 45.482 C 126.336 45.369,126.352 45.325,126.443 45.381 C 126.532 45.436,126.744 45.054,126.914 44.532 C 127.085 44.010,127.399 43.208,127.611 42.750 C 127.824 42.292,128.177 41.432,128.396 40.840 C 128.842 39.631,129.073 39.434,129.242 40.118 C 129.305 40.374,129.571 41.033,129.832 41.583 C 130.093 42.133,130.431 42.976,130.583 43.456 C 130.735 43.937,130.929 44.373,131.015 44.426 C 131.102 44.479,131.129 44.593,131.076 44.678 C 131.023 44.764,131.041 44.833,131.116 44.833 C 131.191 44.833,131.350 45.146,131.469 45.529 C 131.589 45.911,131.805 46.493,131.951 46.821 C 132.096 47.148,132.243 47.561,132.278 47.737 C 132.428 48.512,132.312 48.500,139.604 48.500 C 145.667 48.500,146.500 48.469,146.500 48.246 C 146.500 48.107,146.718 47.512,146.984 46.925 C 147.250 46.338,147.425 45.814,147.373 45.762 C 147.321 45.710,147.378 45.667,147.500 45.667 C 147.622 45.667,147.673 45.617,147.613 45.557 C 147.552 45.497,147.567 45.365,147.646 45.265 C 147.725 45.165,147.923 44.671,148.086 44.167 C 148.249 43.663,148.432 43.212,148.493 43.167 C 148.554 43.121,148.779 42.596,148.992 42.000 C 149.205 41.404,149.512 40.617,149.675 40.250 C 150.232 38.991,150.461 38.415,150.671 37.750 C 150.787 37.383,150.933 37.046,150.996 37.000 C 151.059 36.954,151.325 36.317,151.587 35.583 C 151.850 34.850,152.132 34.204,152.213 34.148 C 152.295 34.092,152.355 33.998,152.346 33.939 C 152.337 33.880,152.443 33.560,152.581 33.229 C 152.720 32.897,152.833 32.557,152.833 32.473 C 152.833 32.388,153.046 31.854,153.307 31.285 C 153.567 30.716,153.955 29.762,154.167 29.167 C 154.380 28.571,154.618 27.999,154.696 27.896 C 154.775 27.794,155.020 27.176,155.242 26.523 C 155.464 25.871,155.762 25.130,155.904 24.877 C 156.284 24.199,156.664 22.963,156.549 22.777 C 156.493 22.688,156.535 22.668,156.641 22.734 C 156.763 22.809,156.833 22.727,156.833 22.510 C 156.833 22.321,156.896 22.167,156.974 22.167 C 157.093 22.167,157.496 21.094,157.520 20.710 C 157.525 20.640,157.587 20.508,157.659 20.417 C 157.731 20.325,157.886 19.950,158.002 19.583 C 158.119 19.217,158.283 18.872,158.366 18.818 C 158.449 18.764,158.529 18.558,158.544 18.360 C 158.559 18.162,158.614 18.000,158.668 18.000 C 158.721 18.000,158.907 17.569,159.082 17.042 C 159.257 16.515,159.516 15.899,159.658 15.674 C 159.800 15.449,159.901 15.244,159.882 15.219 C 159.863 15.193,159.957 14.911,160.091 14.592 C 160.224 14.272,160.333 13.968,160.333 13.915 C 160.333 13.862,160.548 13.354,160.811 12.785 C 161.074 12.216,161.423 11.338,161.586 10.833 C 161.749 10.329,161.934 9.879,161.996 9.833 C 162.059 9.787,162.324 9.150,162.586 8.417 C 162.848 7.683,163.155 6.933,163.268 6.750 C 163.381 6.567,163.498 6.267,163.528 6.083 C 163.559 5.900,163.621 5.712,163.668 5.667 C 163.715 5.621,163.896 5.171,164.071 4.667 C 164.246 4.162,164.450 3.709,164.524 3.659 C 164.598 3.610,164.684 3.422,164.716 3.243 C 164.748 3.063,164.891 2.648,165.034 2.319 C 165.177 1.990,165.350 1.540,165.419 1.319 C 165.488 1.098,165.647 0.769,165.772 0.588 C 165.898 0.407,166.000 0.201,166.000 0.130 C 166.000 0.058,163.235 0.000,159.856 0.000 L 153.712 0.000 153.284 0.958 C 153.049 1.485,152.691 2.367,152.489 2.917 C 152.287 3.467,152.048 4.010,151.957 4.125 C 151.867 4.240,151.858 4.334,151.938 4.336 C 152.018 4.337,152.008 4.394,151.915 4.461 C 151.823 4.528,151.603 4.996,151.427 5.500 C 151.251 6.004,150.941 6.754,150.737 7.167 C 150.534 7.579,150.231 8.367,150.063 8.917 C 149.896 9.467,149.697 9.961,149.621 10.015 C 149.545 10.069,149.471 10.275,149.456 10.473 C 149.441 10.671,149.366 10.833,149.288 10.833 C 149.210 10.833,149.190 10.903,149.243 10.988 C 149.296 11.074,149.261 11.191,149.167 11.250 C 149.072 11.309,149.038 11.426,149.090 11.512 C 149.143 11.597,149.117 11.667,149.031 11.667 C 148.946 11.667,148.782 12.004,148.667 12.417 C 148.551 12.829,148.400 13.167,148.331 13.167 C 148.262 13.167,148.166 13.335,148.118 13.542 C 147.992 14.086,147.312 15.888,147.159 16.083 C 147.087 16.175,146.831 16.775,146.591 17.417 C 146.350 18.058,145.998 18.905,145.808 19.298 C 145.619 19.691,145.453 20.190,145.440 20.407 C 145.427 20.624,145.360 20.767,145.292 20.724 C 145.223 20.682,145.167 20.768,145.167 20.915 C 145.167 21.062,145.011 21.498,144.821 21.883 C 144.631 22.268,144.285 23.108,144.052 23.750 C 143.819 24.392,143.561 25.000,143.480 25.101 C 143.272 25.360,142.650 27.205,142.740 27.295 C 142.780 27.336,142.685 27.506,142.529 27.674 C 142.258 27.964,141.167 30.746,141.167 31.145 C 141.167 31.249,141.098 31.333,141.014 31.333 C 140.930 31.333,140.625 32.040,140.337 32.904 C 139.648 34.972,139.446 35.135,139.065 33.927 C 138.904 33.417,138.711 33.000,138.636 33.000 C 138.561 33.000,138.500 32.887,138.500 32.750 C 138.500 32.612,138.421 32.500,138.323 32.500 C 138.226 32.500,138.187 32.435,138.236 32.356 C 138.329 32.205,137.713 30.309,137.524 30.167 C 137.464 30.121,137.274 29.671,137.102 29.167 C 136.931 28.662,136.686 28.081,136.558 27.875 C 136.430 27.669,136.367 27.500,136.417 27.500 C 136.467 27.500,136.385 27.261,136.233 26.968 C 136.082 26.676,135.784 25.924,135.571 25.298 L 135.184 24.160 135.595 23.038 C 135.820 22.421,136.116 21.718,136.253 21.474 C 136.389 21.231,136.500 20.875,136.500 20.683 C 136.500 20.491,136.561 20.333,136.636 20.333 C 136.711 20.333,136.908 19.902,137.073 19.375 C 137.239 18.848,137.447 18.370,137.537 18.313 C 137.626 18.257,137.711 18.013,137.725 17.772 C 137.739 17.531,137.800 17.334,137.862 17.333 C 137.923 17.333,138.103 16.940,138.261 16.458 C 138.420 15.977,138.601 15.546,138.664 15.500 C 138.727 15.454,138.988 14.817,139.244 14.083 C 139.499 13.350,139.783 12.656,139.875 12.542 C 139.966 12.427,139.975 12.332,139.895 12.331 C 139.815 12.329,139.833 12.273,139.934 12.206 C 140.035 12.138,140.250 11.671,140.412 11.167 C 140.574 10.662,140.874 9.911,141.077 9.497 C 141.281 9.082,141.584 8.332,141.751 7.830 C 141.918 7.328,142.232 6.583,142.449 6.174 C 142.665 5.766,142.806 5.335,142.760 5.216 C 142.714 5.097,142.738 5.000,142.812 5.000 C 142.886 5.000,143.049 4.681,143.175 4.292 C 143.300 3.902,143.451 3.546,143.511 3.500 C 143.570 3.454,143.865 2.742,144.167 1.917 C 144.468 1.092,144.749 0.322,144.792 0.206 C 144.855 0.039,143.622 0.005,138.743 0.040 L 132.616 0.083 132.290 0.711 C 132.111 1.056,131.954 1.518,131.941 1.737 C 131.927 1.956,131.860 2.100,131.792 2.058 C 131.723 2.015,131.667 2.088,131.667 2.220 C 131.667 2.352,131.540 2.750,131.386 3.105 C 131.231 3.460,131.119 3.806,131.136 3.875 C 131.153 3.944,131.084 4.000,130.982 4.000 C 130.881 4.000,130.841 4.113,130.894 4.250 C 130.946 4.388,130.925 4.500,130.846 4.500 C 130.767 4.500,130.651 4.706,130.588 4.958 C 130.526 5.210,130.308 5.754,130.105 6.167 C 129.902 6.579,129.592 7.349,129.416 7.877 C 129.052 8.969,128.872 9.011,128.553 8.074 C 128.430 7.712,128.281 7.304,128.223 7.167 C 128.164 7.029,128.097 6.827,128.074 6.717 C 128.051 6.607,127.877 6.195,127.689 5.800 C 127.142 4.660,126.780 3.761,126.809 3.620 C 126.824 3.549,126.648 3.137,126.418 2.705 C 126.188 2.273,126.000 1.821,126.000 1.700 C 126.000 1.579,125.926 1.526,125.835 1.582 C 125.740 1.641,125.713 1.573,125.771 1.423 C 125.826 1.280,125.778 1.051,125.665 0.915 C 125.552 0.778,125.509 0.667,125.569 0.667 C 125.629 0.667,125.598 0.517,125.500 0.333 C 125.278 -0.081,113.167 -0.204,113.167 0.208 C 113.167 0.485,113.832 2.226,113.978 2.333 C 114.041 2.379,114.230 2.867,114.399 3.417 C 114.567 3.967,114.911 4.867,115.164 5.417 C 115.417 5.967,115.717 6.717,115.832 7.083 C 115.947 7.450,116.180 8.012,116.351 8.333 C 116.521 8.654,116.859 9.479,117.100 10.167 C 117.341 10.854,117.606 11.501,117.689 11.604 C 117.771 11.706,118.020 12.325,118.242 12.977 C 118.464 13.630,118.763 14.331,118.906 14.536 C 119.049 14.740,119.167 15.041,119.167 15.204 C 119.167 15.367,119.226 15.500,119.298 15.500 C 119.370 15.500,119.442 15.668,119.457 15.873 C 119.473 16.077,119.564 16.271,119.660 16.303 C 119.757 16.336,119.796 16.425,119.748 16.503 C 119.700 16.581,119.876 17.118,120.140 17.697 C 120.403 18.276,120.713 19.050,120.828 19.417 C 120.943 19.783,121.138 20.245,121.262 20.442 C 121.385 20.640,121.670 21.325,121.893 21.965 C 122.117 22.606,122.426 23.394,122.579 23.718 C 122.829 24.243,122.832 24.348,122.611 24.695 C 122.475 24.909,122.155 25.683,121.900 26.417 C 121.645 27.150,121.388 27.787,121.329 27.833 C 121.270 27.879,121.012 28.517,120.756 29.250 C 120.501 29.983,120.230 30.661,120.155 30.756 C 120.080 30.851,119.829 31.451,119.598 32.089 C 119.367 32.728,119.025 33.547,118.839 33.910 C 118.652 34.273,118.495 34.686,118.489 34.827 C 118.479 35.080,118.218 34.587,118.201 34.283 C 118.197 34.209,118.086 33.984,117.955 33.783 C 117.824 33.581,117.621 33.117,117.503 32.750 C 117.386 32.383,117.209 31.933,117.111 31.750 C 117.013 31.567,116.909 31.269,116.879 31.089 C 116.849 30.909,116.728 30.609,116.611 30.422 C 116.493 30.236,116.259 29.708,116.090 29.250 C 115.920 28.792,115.606 28.028,115.391 27.552 C 115.176 27.077,115.000 26.651,115.000 26.605 C 115.000 26.559,114.913 26.311,114.808 26.053 C 114.702 25.794,114.594 25.472,114.567 25.336 C 114.540 25.201,114.439 25.063,114.341 25.030 C 114.244 24.998,114.212 24.895,114.270 24.800 C 114.328 24.706,114.303 24.582,114.215 24.523 C 114.126 24.465,113.849 23.817,113.599 23.083 C 113.349 22.350,113.048 21.600,112.931 21.417 C 112.814 21.233,112.583 20.671,112.419 20.167 C 112.254 19.662,111.910 18.800,111.654 18.250 C 111.398 17.700,111.138 17.044,111.076 16.792 C 111.014 16.540,110.899 16.333,110.820 16.333 C 110.742 16.333,110.720 16.221,110.773 16.083 C 110.827 15.942,110.777 15.833,110.657 15.833 C 110.540 15.833,110.494 15.784,110.554 15.724 C 110.614 15.663,110.596 15.532,110.513 15.432 C 110.430 15.332,110.194 14.762,109.990 14.167 C 109.785 13.571,109.406 12.617,109.147 12.048 C 108.888 11.478,108.628 10.822,108.570 10.589 C 108.512 10.357,108.393 10.167,108.305 10.167 C 108.218 10.167,108.192 10.093,108.247 10.004 C 108.303 9.915,108.198 9.558,108.014 9.212 C 107.830 8.866,107.478 8.021,107.231 7.333 C 106.985 6.646,106.639 5.877,106.463 5.625 C 106.288 5.373,106.183 5.167,106.230 5.167 C 106.340 5.167,105.715 3.345,105.521 3.101 C 105.440 3.000,105.319 2.736,105.251 2.515 C 105.183 2.293,105.010 1.843,104.867 1.515 C 104.725 1.186,104.582 0.770,104.550 0.591 C 104.449 0.026,104.217 0.005,98.046 0.003 L 92.009 0.000 92.522 1.458 " stroke="none" fill="#fff" fill-rule="evenodd"></path><path class="path1" id="path1" d="M168.333 4.833 L 168.333 9.667 176.148 9.667 L 183.962 9.667 184.088 14.292 C 184.157 16.835,184.166 20.698,184.108 22.876 C 184.049 25.053,184.051 31.710,184.111 37.668 L 184.221 48.500 189.527 48.500 L 194.833 48.500 194.833 29.083 L 194.833 9.667 202.667 9.667 L 210.500 9.667 210.500 4.833 L 210.500 0.000 189.417 0.000 L 168.333 0.000 168.333 4.833 M220.917 0.110 C 220.414 0.218,219.095 0.706,219.000 0.819 C 218.954 0.874,218.617 1.141,218.250 1.413 C 217.352 2.080,216.832 2.610,216.955 2.732 C 217.010 2.788,216.964 2.833,216.853 2.833 C 216.741 2.833,216.534 3.115,216.392 3.458 C 216.251 3.802,216.037 4.308,215.916 4.583 C 215.796 4.858,215.679 5.196,215.655 5.333 C 215.495 6.270,215.528 42.749,215.689 42.943 C 215.791 43.066,215.834 43.167,215.785 43.167 C 215.571 43.167,216.539 45.418,216.916 45.794 C 217.145 46.024,217.333 46.268,217.333 46.336 C 217.333 46.550,219.049 47.756,219.833 48.094 C 220.558 48.406,221.211 48.418,239.204 48.462 L 257.825 48.507 257.918 48.128 C 257.969 47.920,257.989 45.762,257.963 43.333 L 257.917 38.917 242.125 38.874 L 226.333 38.832 226.333 32.582 L 226.333 26.333 242.066 26.333 C 256.257 26.333,257.808 26.308,257.899 26.070 C 258.156 25.400,258.007 16.872,257.736 16.768 C 257.591 16.712,250.466 16.667,241.903 16.667 L 226.333 16.667 226.333 13.167 L 226.333 9.667 242.066 9.667 C 256.540 9.667,257.806 9.645,257.903 9.391 C 257.961 9.240,258.003 7.065,257.995 4.558 L 257.980 -0.000 239.615 0.019 C 229.514 0.030,221.100 0.071,220.917 0.110 M262.835 21.042 C 262.838 41.930,262.884 43.833,263.393 44.385 C 263.498 44.499,263.600 44.677,263.620 44.781 C 263.723 45.312,265.497 47.330,265.863 47.333 C 265.925 47.333,266.075 47.429,266.196 47.546 C 267.132 48.450,266.307 48.413,286.542 48.462 L 305.167 48.507 305.167 43.670 L 305.167 38.833 289.417 38.833 L 273.667 38.833 273.667 19.680 C 273.667 9.146,273.621 0.409,273.566 0.264 C 273.476 0.031,272.842 0.000,268.148 0.000 L 262.831 0.000 262.835 21.042 M314.756 0.361 C 312.750 1.036,311.028 2.843,310.573 4.750 C 310.508 5.025,310.426 5.301,310.391 5.363 C 310.357 5.425,310.326 13.909,310.323 24.216 C 310.317 42.767,310.357 44.289,310.854 44.596 C 310.934 44.646,311.000 44.831,311.000 45.009 C 311.000 45.186,311.225 45.531,311.500 45.776 C 311.775 46.021,311.963 46.260,311.917 46.305 C 311.871 46.351,312.325 46.747,312.926 47.185 C 314.847 48.586,313.460 48.500,334.153 48.500 L 352.505 48.500 352.461 43.708 L 352.417 38.917 336.625 38.874 L 320.833 38.832 320.833 30.026 C 320.833 25.183,320.883 18.621,320.944 15.444 L 321.054 9.667 336.777 9.667 L 352.500 9.667 352.500 4.832 L 352.500 -0.003 334.125 0.012 C 316.191 0.026,315.726 0.035,314.756 0.361 M362.583 0.234 C 360.866 0.791,359.336 2.018,358.635 3.400 C 358.444 3.776,358.218 4.129,358.131 4.184 C 358.045 4.240,357.997 4.390,358.024 4.518 C 358.052 4.645,357.979 5.087,357.864 5.500 C 357.698 6.089,357.667 10.210,357.717 24.750 C 357.782 43.372,357.790 43.790,358.114 44.194 C 358.211 44.317,358.389 44.694,358.509 45.033 C 358.837 45.960,360.278 47.402,361.359 47.885 C 362.747 48.504,362.802 48.506,378.576 48.501 C 387.105 48.498,394.294 48.457,394.550 48.409 C 395.071 48.314,396.371 47.826,396.500 47.677 C 396.546 47.625,396.883 47.358,397.250 47.085 C 398.457 46.187,399.216 45.146,399.585 43.881 C 399.806 43.126,399.839 40.560,399.837 24.196 C 399.835 4.164,399.856 4.739,399.073 3.544 C 398.937 3.337,398.865 3.167,398.913 3.167 C 399.029 3.167,398.565 2.628,397.750 1.817 C 397.383 1.452,396.596 0.912,396.000 0.618 L 394.917 0.083 379.083 0.051 C 366.498 0.025,363.113 0.062,362.583 0.234 M389.167 24.250 L 389.167 38.833 378.860 38.833 L 368.554 38.833 368.439 30.169 C 368.376 25.404,368.376 18.841,368.439 15.586 L 368.553 9.667 378.860 9.667 L 389.167 9.667 389.167 24.250 " stroke="none" fill="#fff" fill-rule="evenodd"></path><path class="path2" id="path2" d="M47.409 26.667 C 47.409 30.287,47.431 31.769,47.458 29.958 C 47.485 28.148,47.485 25.185,47.458 23.375 C 47.431 21.565,47.409 23.046,47.409 26.667 " stroke="none" fill="#fff" fill-rule="evenodd"></path><path id="path3" d="" stroke="none" fill="#fff" fill-rule="evenodd"></path><path id="path4" d="M210.574 4.833 C 210.574 7.537,210.597 8.644,210.625 7.292 C 210.653 5.940,210.653 3.727,210.625 2.375 C 210.597 1.023,210.574 2.129,210.574 4.833 M273.625 14.042 C 273.648 21.765,273.687 30.521,273.711 33.500 C 273.735 36.479,273.772 30.160,273.794 19.458 C 273.816 8.756,273.777 -0.000,273.708 -0.000 C 273.640 -0.000,273.602 6.319,273.625 14.042 M361.074 0.745 C 360.896 0.879,360.825 0.989,360.917 0.989 C 361.008 0.989,361.229 0.879,361.407 0.745 C 361.585 0.610,361.655 0.500,361.564 0.500 C 361.472 0.500,361.251 0.610,361.074 0.745 M218.236 1.262 L 217.583 1.857 218.250 1.394 C 218.617 1.139,218.948 0.908,218.986 0.882 C 219.024 0.855,219.018 0.796,218.972 0.750 C 218.926 0.704,218.595 0.935,218.236 1.262 M359.086 2.453 L 358.793 2.917 359.179 2.546 C 359.391 2.343,359.523 2.134,359.472 2.083 C 359.420 2.032,359.247 2.198,359.086 2.453 M357.758 5.102 C 357.609 5.894,357.731 5.985,357.956 5.250 C 358.055 4.929,358.076 4.630,358.003 4.585 C 357.930 4.540,357.819 4.772,357.758 5.102 M310.105 6.042 C 309.929 6.700,309.989 42.441,310.167 42.167 C 310.316 41.935,310.414 5.667,310.265 5.667 C 310.232 5.667,310.160 5.835,310.105 6.042 M399.914 24.250 C 399.914 33.967,399.934 37.966,399.958 33.138 C 399.983 28.309,399.983 20.359,399.958 15.471 C 399.934 10.583,399.914 14.533,399.914 24.250 M183.833 29.056 C 183.833 41.473,183.892 48.500,183.995 48.500 C 184.177 48.500,184.127 9.905,183.944 9.722 C 183.883 9.661,183.833 18.361,183.833 29.056 M230.667 16.622 C 242.048 16.735,258.000 16.737,258.000 16.625 C 258.000 16.556,250.856 16.517,242.125 16.539 C 233.394 16.560,228.237 16.598,230.667 16.622 M368.408 22.500 C 368.408 25.479,368.430 26.698,368.458 25.208 C 368.486 23.719,368.486 21.281,368.458 19.792 C 368.430 18.302,368.408 19.521,368.408 22.500 M320.912 28.083 C 320.912 34.042,320.933 36.455,320.958 33.446 C 320.984 30.437,320.984 25.562,320.958 22.613 C 320.933 19.663,320.912 22.125,320.912 28.083 M257.833 26.166 C 257.833 26.274,252.376 26.347,242.042 26.375 L 226.250 26.418 242.125 26.459 C 256.143 26.495,258.000 26.471,258.000 26.250 C 258.000 26.113,257.962 26.000,257.917 26.000 C 257.871 26.000,257.833 26.075,257.833 26.166 M216.872 46.000 C 216.987 46.183,217.138 46.333,217.208 46.333 C 217.279 46.333,217.242 46.183,217.128 46.000 C 217.013 45.817,216.862 45.667,216.792 45.667 C 216.721 45.667,216.758 45.817,216.872 46.000 M358.983 46.116 C 359.167 46.479,359.476 46.754,359.573 46.642 C 359.601 46.610,359.437 46.396,359.210 46.167 C 358.833 45.786,358.813 45.782,358.983 46.116 M397.918 46.527 C 397.517 46.952,397.492 47.016,397.790 46.857 C 397.993 46.748,398.238 46.511,398.335 46.330 C 398.578 45.876,398.496 45.914,397.918 46.527 M264.567 46.476 C 264.920 46.873,265.000 46.909,265.000 46.673 C 265.000 46.584,264.831 46.423,264.625 46.315 C 264.252 46.119,264.252 46.120,264.567 46.476 M312.153 46.727 C 312.375 47.001,313.000 47.414,313.000 47.287 C 313.000 47.255,312.756 47.051,312.458 46.833 C 312.123 46.587,312.007 46.547,312.153 46.727 M396.792 47.399 C 396.631 47.520,396.500 47.666,396.500 47.721 C 396.500 47.909,396.973 47.643,397.065 47.404 C 397.175 47.118,397.162 47.117,396.792 47.399 M371.638 48.625 C 375.701 48.650,382.301 48.650,386.304 48.625 C 390.308 48.600,386.983 48.580,378.917 48.580 C 370.850 48.580,367.574 48.600,371.638 48.625 " stroke="none" fill="#fff" fill-rule="evenodd"></path></g></svg>