<svg id="svg" version="1.1" xmlns="http://www.w3.org/2000/svg" xmlns:xlink="http://www.w3.org/1999/xlink" width="400" height="400" viewBox="0, 0, 400,400"><g id="svgg"><path id="path0" d="M200.555 87.900 C 200.434 88.285,200.194 88.960,200.021 89.401 C 199.849 89.841,199.831 99.203,199.982 110.205 C 200.301 133.545,200.044 132.154,204.124 132.605 C 208.236 133.060,263.933 133.232,264.206 132.791 C 265.350 130.939,269.085 133.572,268.052 135.502 C 267.827 135.923,267.645 139.958,267.632 144.822 C 267.620 149.540,267.435 155.110,267.222 157.200 C 265.844 170.702,265.845 275.059,267.223 284.400 C 267.433 285.830,267.686 288.620,267.783 290.600 C 268.003 295.091,268.341 297.053,268.987 297.589 C 269.327 297.871,277.381 297.973,293.845 297.903 L 318.200 297.800 318.679 296.400 C 319.044 295.332,319.161 275.832,319.173 214.071 C 319.182 169.560,319.292 132.975,319.418 132.771 C 319.727 132.271,322.138 132.298,322.648 132.808 C 323.110 133.270,379.164 133.081,382.701 132.605 C 387.084 132.016,387.304 130.740,387.131 106.942 C 387.007 89.847,386.959 88.838,386.238 88.042 L 385.476 87.200 293.125 87.200 C 205.523 87.200,200.764 87.236,200.555 87.900 M196.194 181.200 C 196.194 207.930,196.242 218.865,196.300 205.500 C 196.358 192.135,196.358 170.265,196.300 156.900 C 196.242 143.535,196.194 154.470,196.194 181.200 " stroke="none" fill="#fff" fill-rule="evenodd"></path><path id="path1" d="M10.646 87.824 C 10.327 88.657,10.323 296.534,10.643 297.367 C 10.903 298.046,58.088 298.364,59.000 297.694 C 60.401 296.664,60.400 296.711,60.400 241.229 C 60.400 205.406,60.263 186.763,60.000 186.600 C 59.403 186.231,59.501 181.780,60.118 181.268 C 60.521 180.933,60.753 181.234,61.162 182.619 C 61.452 183.598,61.807 184.400,61.952 184.400 C 62.249 184.400,65.600 189.716,65.600 190.188 C 65.600 190.535,68.430 193.200,68.798 193.200 C 68.931 193.200,69.277 193.857,69.567 194.660 C 70.109 196.159,71.810 197.965,72.700 197.987 C 72.975 197.994,73.200 198.349,73.200 198.776 C 73.200 199.203,73.380 199.664,73.600 199.800 C 73.820 199.936,74.000 200.475,74.000 200.997 C 74.000 201.596,74.738 202.704,76.000 204.000 C 77.100 205.129,78.000 206.311,78.000 206.627 C 78.000 206.942,78.180 207.200,78.400 207.200 C 78.620 207.200,78.800 207.560,78.800 208.000 C 78.800 208.440,78.935 208.800,79.100 208.800 C 79.715 208.801,81.636 210.748,81.785 211.520 C 82.039 212.841,83.213 214.855,84.375 215.961 C 84.975 216.532,85.759 217.642,86.117 218.427 C 86.785 219.891,89.286 222.800,89.875 222.800 C 90.206 222.800,90.902 224.223,91.391 225.900 C 91.536 226.395,91.830 226.800,92.045 226.800 C 92.666 226.800,94.400 228.701,94.400 229.382 C 94.400 229.722,94.580 230.000,94.800 230.000 C 95.020 230.000,95.200 230.376,95.200 230.836 C 95.200 231.295,95.965 232.437,96.900 233.372 C 97.835 234.307,99.219 236.090,99.976 237.333 C 100.734 238.577,101.679 239.698,102.076 239.824 C 102.474 239.951,102.800 240.312,102.800 240.627 C 102.800 240.942,102.980 241.200,103.200 241.200 C 103.420 241.200,103.600 241.442,103.600 241.739 C 103.600 242.567,104.809 244.800,105.258 244.800 C 106.042 244.800,108.400 248.127,108.400 249.233 C 108.400 249.457,109.063 250.248,109.873 250.990 C 110.683 251.732,111.819 253.298,112.399 254.470 C 112.978 255.641,113.890 256.825,114.426 257.099 C 114.962 257.374,115.355 257.779,115.300 257.999 C 115.245 258.220,115.373 258.400,115.585 258.400 C 115.796 258.400,116.160 259.109,116.394 259.976 C 116.641 260.894,117.123 261.648,117.548 261.784 C 117.950 261.911,118.488 262.417,118.744 262.908 C 118.999 263.398,119.553 264.340,119.975 265.000 C 120.397 265.660,120.755 266.453,120.771 266.761 C 120.802 267.354,123.896 270.400,124.467 270.400 C 124.650 270.400,124.800 270.877,124.800 271.460 C 124.800 272.209,125.386 273.081,126.800 274.437 C 127.930 275.521,128.800 276.713,128.800 277.177 C 128.800 277.630,128.980 278.000,129.200 278.000 C 129.420 278.000,129.600 278.172,129.600 278.382 C 129.600 278.878,131.522 280.800,132.018 280.800 C 132.228 280.800,132.400 281.055,132.400 281.367 C 132.400 281.678,132.574 281.993,132.787 282.067 C 133.000 282.140,133.220 282.800,133.275 283.532 C 133.383 284.971,134.966 286.945,136.368 287.390 C 136.826 287.535,137.200 287.944,137.200 288.299 C 137.200 289.475,138.153 291.600,138.680 291.600 C 138.966 291.600,139.200 291.745,139.200 291.922 C 139.200 292.099,139.830 292.931,140.600 293.772 C 141.370 294.613,142.000 295.514,142.000 295.775 C 142.000 296.036,142.369 296.646,142.821 297.130 L 143.641 298.011 169.021 297.994 C 185.163 297.983,194.400 297.836,194.400 297.589 C 194.400 297.375,194.641 297.200,194.936 297.200 C 196.301 297.200,196.338 294.158,196.246 190.918 L 196.154 88.836 195.114 88.018 C 194.091 87.213,193.655 87.200,168.666 87.200 L 143.259 87.200 142.623 88.475 C 142.050 89.622,141.988 95.243,142.000 144.575 C 142.008 174.729,142.009 199.670,142.003 200.000 C 141.997 200.330,141.427 199.610,140.735 198.400 C 140.043 197.190,139.126 195.892,138.696 195.516 C 138.265 195.139,137.461 193.969,136.907 192.916 C 136.353 191.862,135.113 190.278,134.150 189.395 C 133.106 188.438,132.400 187.438,132.400 186.916 C 132.400 186.115,130.205 183.606,129.500 183.602 C 129.335 183.601,129.200 183.240,129.200 182.800 C 129.200 182.360,129.065 181.998,128.900 181.995 C 128.735 181.993,128.266 181.293,127.857 180.440 C 127.449 179.587,126.715 178.675,126.225 178.413 C 125.736 178.152,124.993 177.366,124.576 176.669 C 123.770 175.323,123.728 175.208,123.650 174.080 C 123.623 173.685,122.891 172.920,122.025 172.380 C 120.648 171.523,120.166 170.786,119.780 168.947 C 119.727 168.698,118.856 167.730,117.842 166.796 C 116.829 165.862,116.000 164.761,116.000 164.349 C 116.000 163.937,115.840 163.600,115.643 163.600 C 115.447 163.600,115.180 163.173,115.048 162.651 C 114.917 162.128,114.003 161.093,113.017 160.351 C 111.668 159.334,111.222 158.728,111.212 157.900 C 111.206 157.295,111.020 156.800,110.800 156.800 C 110.580 156.800,110.400 156.517,110.400 156.171 C 110.400 155.405,109.451 154.400,108.726 154.400 C 108.434 154.400,107.953 153.815,107.657 153.100 C 106.052 149.220,105.401 148.253,103.794 147.357 C 103.357 147.114,102.934 146.579,102.854 146.170 C 102.672 145.242,100.838 142.800,100.324 142.800 C 99.674 142.800,98.937 141.837,98.357 140.229 C 98.051 139.381,97.146 137.993,96.346 137.144 C 95.547 136.294,94.505 134.645,94.031 133.477 C 93.558 132.310,92.800 131.095,92.348 130.777 C 90.744 129.652,90.189 128.978,89.285 127.059 C 88.782 125.991,88.029 125.028,87.613 124.919 C 86.976 124.753,86.450 124.105,86.218 123.200 C 85.847 121.760,84.232 119.136,83.109 118.150 C 82.326 117.462,81.560 116.505,81.407 116.023 C 81.057 114.921,78.870 112.401,78.259 112.397 C 77.706 112.393,76.803 110.561,76.791 109.420 C 76.786 108.925,76.152 108.154,75.191 107.474 C 74.272 106.824,73.600 106.021,73.600 105.574 C 73.600 105.148,73.420 104.800,73.200 104.800 C 72.980 104.800,72.800 104.429,72.800 103.977 C 72.800 102.986,70.570 100.108,69.553 99.785 C 69.136 99.653,68.724 99.012,68.584 98.277 C 68.290 96.731,67.265 95.402,66.078 95.025 C 65.595 94.871,65.200 94.503,65.200 94.206 C 65.200 93.910,65.034 93.607,64.831 93.533 C 64.627 93.460,64.399 92.844,64.323 92.164 C 64.247 91.484,63.873 90.616,63.492 90.235 C 63.112 89.854,62.800 89.376,62.800 89.171 C 62.800 88.967,62.539 88.800,62.220 88.800 C 61.901 88.800,61.464 88.485,61.248 88.100 C 60.669 87.064,11.042 86.794,10.646 87.824 " stroke="none" fill="#fff" fill-rule="evenodd"></path></g></svg>