<svg xmlns="http://www.w3.org/2000/svg" xmlns:xlink="http://www.w3.org/1999/xlink" xmlns:fi="http://pattern.flaticon.com/" x="0" y="0" width="100%" height="100%" ><rect x="0px" y="0px" width="100%" height="100%" opacity="1" fill="#f4f4f4"/><defs><g transform="matrix(0.14664772466022144 0.028383430097328372 -0.028383430097328372 0.14664772466022144 -29.20305656310001 267.1462789497328)" id="L1_0"><path d="M85.636,67.25c-26.754,0-48.522,21.767-48.522,48.522c0,26.756,21.767,48.522,48.522,48.522    c26.756,0,48.523-21.767,48.523-48.522C134.159,89.017,112.392,67.25,85.636,67.25z M85.637,149.243    c-18.456,0-33.472-15.014-33.472-33.471c0-18.457,15.015-33.471,33.472-33.471s33.472,15.015,33.472,33.471    C119.109,134.228,104.093,149.243,85.637,149.243z"/><path d="M85.637,30.135c-4.157,0-7.525,3.369-7.525,7.525v15.138c0,4.156,3.368,7.525,7.525,7.525s7.525-3.369,7.525-7.525V37.66    C93.162,33.504,89.794,30.135,85.637,30.135z"/><path d="M146.193,55.217c-2.94-2.938-7.704-2.939-10.644,0l-10.704,10.704c-2.939,2.939-2.939,7.704,0,10.642    c1.47,1.47,3.395,2.204,5.322,2.204c1.925,0,3.852-0.734,5.322-2.203l10.704-10.704C149.132,62.921,149.132,58.156,146.193,55.217    z"/><path d="M163.749,108.247h-15.137c-4.157,0-7.525,3.369-7.525,7.525c0,4.156,3.368,7.525,7.525,7.525h15.137    c4.157,0,7.525-3.369,7.525-7.525C171.274,111.616,167.906,108.247,163.749,108.247z"/><path d="M146.193,165.684l-10.704-10.703c-2.941-2.939-7.705-2.939-10.644,0s-2.939,7.704,0,10.642l10.704,10.704    c1.47,1.469,3.396,2.204,5.322,2.204s3.852-0.734,5.322-2.204C149.132,173.388,149.132,168.623,146.193,165.684z"/><path d="M85.637,171.222c-4.157,0-7.525,3.369-7.525,7.525v15.138c0,4.156,3.368,7.525,7.525,7.525s7.525-3.369,7.525-7.525    v-15.138C93.162,174.591,89.794,171.222,85.637,171.222z"/><path d="M46.43,154.981c-2.939-2.939-7.703-2.939-10.643,0l-10.704,10.703c-2.94,2.939-2.94,7.704-0.001,10.643    c1.47,1.469,3.395,2.204,5.322,2.204c1.925,0,3.852-0.734,5.322-2.204l10.704-10.704C49.368,162.684,49.368,157.919,46.43,154.981    z"/><path d="M22.662,108.247H7.525c-4.157,0-7.525,3.369-7.525,7.525c0,4.156,3.368,7.525,7.525,7.525h15.137    c4.157,0,7.525-3.369,7.525-7.525C30.187,111.616,26.819,108.247,22.662,108.247z"/><path d="M46.43,65.921L35.725,55.217c-2.94-2.939-7.704-2.939-10.643,0c-2.939,2.939-2.939,7.704,0,10.643l10.704,10.704    c1.47,1.469,3.396,2.203,5.322,2.203c1.925,0,3.852-0.734,5.322-2.204C49.368,73.624,49.368,68.859,46.43,65.921z"/><path d="M508.356,457.18c-13.116-8.896-28.324-12.925-43.34-12.113c-13.861-19.093-40.008-35.461-76.032-47.525    c-22.361-7.488-47.316-12.893-73.849-16.102l53.915-135.271c8.135,5.875,15.235,12.853,21.038,20.747    c1.918,2.61,4.877,4.087,8.141,3.292c17.807-3.229,36.69-1.16,54.628,5.989c18.073,7.203,33.291,18.807,44.008,33.557    c1.437,1.977,3.714,3.101,6.087,3.101c0.602,0,1.21-0.072,1.812-0.222c2.974-0.737,5.204-3.205,5.638-6.238    c0.284-1.991,6.799-49.36-8.723-100.965c-1.196-3.98-5.402-6.235-9.373-5.039c-3.98,1.197-6.236,5.394-5.038,9.373    c9.06,30.124,10.049,59.251,9.493,77.019c-10.74-10.394-23.739-18.752-38.332-24.568c-16.59-6.612-33.947-9.423-50.843-8.3    c0.128-0.389,0.244-0.769,0.37-1.156c5.88-17.964,10.265-36.477,12.422-55.27c1.973-17.197,2.157-34.568-0.008-51.756    c-1.254-9.954-3.388-19.799-6.45-29.355c-0.022-0.069-0.044-0.143-0.067-0.212c27.002,14.629,47.758,36.185,61.846,64.284    c1.862,3.715,6.384,5.216,10.099,3.354c3.715-1.862,5.216-6.384,3.354-10.1c-18.674-37.246-47.974-64.037-87.111-79.638    c-53.828-21.451-109.852-14.395-162.006,20.406c-38.932,25.977-61.729,57.839-62.681,59.182c-1.771,2.5-1.848,5.824-0.197,8.404    c1.651,2.58,4.697,3.903,7.714,3.342c17.927-3.333,36.955-1.288,55.027,5.915c17.81,7.099,32.849,18.471,43.541,32.917    c2.08,2.81,5.114,4.538,8.675,3.48c9.557-1.694,19.418-1.862,29.274-0.544l-60.123,150.855c-1.517-0.013-3.029-0.04-4.551-0.04    c-34.684,0-67.831,3.455-98.52,10.269c-4.057,0.901-6.616,4.92-5.714,8.978c0.901,4.057,4.913,6.617,8.977,5.715    c29.202-6.484,62.142-9.911,95.257-9.911c15.696,0,31.402,0.746,47.022,2.298c0.056,0.005,0.111,0.004,0.168,0.008    c29.047,2.88,56.27,8.423,80.299,16.471c28.686,9.607,50.833,22.267,63.831,36.298c-6.558,2.037-12.901,5.057-18.818,9.069    c-18.905,12.821-43.336,12.821-62.242,0c-24.039-16.303-55.103-16.302-79.139,0c-18.905,12.821-43.336,12.821-62.242,0    c-24.038-16.303-55.102-16.302-79.139,0c-18.905,12.821-43.336,12.821-62.242,0c-5.916-4.012-12.259-7.033-18.817-9.069    c12.981-14.011,35.088-26.657,63.717-36.259c3.94-1.321,6.063-5.587,4.742-9.528c-1.321-3.94-5.585-6.064-9.527-4.742    c-35.961,12.06-62.068,28.415-75.913,47.485c-15.017-0.812-30.224,3.219-43.34,12.113c-3.44,2.333-4.337,7.012-2.004,10.452    c2.332,3.44,7.008,4.338,10.452,2.005c11.17-7.575,24.27-10.672,37.019-9.295c0.458,0.099,0.92,0.162,1.384,0.173    c8.348,1.116,16.51,4.151,23.841,9.123c24.036,16.301,55.099,16.303,79.138,0c18.907-12.822,43.339-12.821,62.243,0    c24.037,16.301,55.1,16.303,79.138,0c18.906-12.822,43.338-12.821,62.243,0c12.019,8.151,25.794,12.227,39.57,12.227    c13.775,0,27.55-4.076,39.57-12.227c7.314-4.96,15.456-7.993,23.785-9.115c0.493-0.009,0.984-0.076,1.472-0.184    c12.739-1.368,25.826,1.729,36.986,9.298c3.44,2.333,8.12,1.436,10.452-2.005C512.692,464.193,511.795,459.513,508.356,457.18z     M302.325,211.403c0.08-0.17,0.163-0.338,0.244-0.508c7.01-14.674,15.187-28.858,24.726-42.04    c2.332-3.222,1.664-8.085-1.684-10.508c-3.275-2.371-8.144-1.584-10.509,1.685c-7.659,10.583-14.464,21.784-20.571,33.329    c-2.206,4.172-4.447,8.394-6.339,12.721c-0.033,0.07-0.068,0.14-0.101,0.21c-11.496-12.441-26.025-22.34-42.62-28.952    c-14.597-5.818-29.789-8.691-44.735-8.535c10.047-11.299,26.551-27.793,48.035-42.063c21.302-14.15,43.29-23.387,65.35-27.454    c21.343-3.934,42.879-3.011,64.249,2.73c-0.086,0.047-0.178,0.099-0.264,0.146c-11.561,6.345-22.28,14.174-32.012,23.063    c-3.796,3.467-7.499,7.031-11.047,10.75c-2.868,3.008-2.755,7.772,0.253,10.64c3.008,2.868,7.771,2.755,10.64-0.253    c9.646-10.118,20.538-19.371,32.428-26.852c5.48-3.449,11.2-6.565,17.173-9.077c1.569,3.559,3.61,8.828,5.527,15.729    c9.074,32.689,6.622,67.965-1.332,100.608c-1.711,7.02-3.688,13.979-5.93,20.847c-0.023,0.071-0.048,0.144-0.071,0.216    c-10.24-10.834-22.815-19.68-37.052-26.047c-0.195-0.087-0.39-0.174-0.585-0.26C339.26,214.096,320.73,210.387,302.325,211.403z     M299.576,379.82c-3.489-0.302-7.002-0.56-10.535-0.788c-3.905-0.268-7.817-0.465-11.728-0.624l59.02-148.079    c3.572,1.023,7.088,2.24,10.531,3.633c0.559,0.227,9.182,4.177,9.166,4.217L299.576,379.82z"/></g><g transform="matrix(0.1209318509160551 -0.015116481072032305 0.015116481072032305 0.1209318509160551 166.12960841904868 114.29773414108317)" id="L1_1"><path d="m329.398438 367.980469c0 53.476562 43.351562 96.828350 96.828124 96.828350 53.472657 0 96.824219-43.351563 96.824219-96.828350 0-53.472657-43.351562-96.824219-96.824219-96.824219-53.453124.058594-96.769531 43.375-96.828124 96.824219zm96.828124-77.460938c42.78350 0 77.460938 34.679688 77.460938 77.460938s-34.679688 77.460937-77.460938 77.460937-77.460937-34.679687-77.460937-77.460937c.046875-42.757813 34.699219-77.414063 77.460937-77.460938zm0 0"/><path d="m370.898438 561.636719h110.664062v19.363281h-110.664062zm0 0"/><path d="m329.398438 522.902344h193.65625v19.367187h-193.65625zm0 0"/><path d="m116.378906 522.902344h19.367188v19.367187h-19.367188zm0 0"/><path d="m58.285156 542.269531h19.363282v19.367188h-19.363282zm0 0"/><path d="m117.347656 468.417969c50.558594-88.054688 82.28350-185.652344 93.15625-286.605469l90.050782 89.515625c1.800781 1.792969 4.234374 2.804687 6.777343 2.816406.523438.003907 1.050781-.039062 1.566407-.350 3.070312-.5 5.710937-2.445312 7.097656-5.226562 18.253906-36.433594 11.105468-80.464844-17.738282-109.25l-7.917968-7.921875h68.105468c5.347657.003906 9.6875-4.328350 9.6875-9.675782.003907-1.046874-.167968-2.085937-.496093-3.074218-12.859375-38.671875-49.046875-64.75-89.800781-64.710938h-12.585938l48.355469-48.636718c3.773437-3.789063 3.757812-9.917969-.03350-13.691407-.734375-.730469-1.578350-1.339843-2.503907-1.800781-36.449218-18.273438-80.503906-11.128906-109.308593 17.730469l-9.246094 9.246093c-3.015625 3.035157-5.816406 6.269532-8.394531 9.683594-2.546875-3.414062-5.328350-6.648437-8.320313-9.683594l-9.246093-9.246093c-28.78350-28.839844-72.8350-35.984375-109.238282-17.730469-4.785156 2.390625-6.726562 8.207031-4.335937 12.988281.460937.925781 1.070312 1.769531 1.800781 2.503907l48.410156 48.636718h-12.710937c-40.753907-.039062-76.945313 26.039063-89.800781 64.710938-1.695313 5.070312 1.042968 10.554687 6.117187 12.25.988281.332031 2.027344.5 3.074219.5h68.039062l-7.917968 7.921875c-28.84375 28.785156-35.992188 72.816406-17.742188 109.25 1.390625 2.78350 4.03350 4.726562 7.097656 5.226562.519532.085938 1.042969.128907 1.570313.350 2.558593 0 5.011719-1.011719 6.824219-2.816406l83.855468-83.359375c-10.382812 92.785156-45.328350 181.121094-101.234375 255.894531-13.015625-3.417969-26.210937-6.109375-39.523437-8.054687l-6.050782-.609375-1.9375 19.277343 5.644532.550782c9.683594 1.386718 19.304687 3.34375 28.875 5.558594-1.9375 2.429687-3.875 4.898437-5.878906 7.292968l14.851562 12.421875c74.410156-88.46875 118.769531-198.300781 126.671875-313.632812l11.144531-11.074219 8.34375 8.296875c-10.179687 123.339844-52.515625 241.859375-122.785156 343.734375l15.859375 11.097656c7.613281-10.867187 14.875-22.144531 21.914063-33.636718 45.292968 21.664062 85.285156 52.996093 117.160156 91.789062l14.976562-12.269531c-18.847656-22.914063-40.441406-43.425781-64.300781-61.066407h405.820313v-19.367187h-434.507813c-9.492187-5.730469-19.289063-10.921875-29.292969-15.753906zm186.429688-221.210938-102.304688-101.714843c26.167969-7.8350 54.511719-.722657 73.917969 18.492187l9.246094 9.25c19.371093 19.335937 26.699219 47.667969 19.140625 73.972656zm39.894531-114.949219h-80.171875c-18.671875-8.886718-39.738281-11.402343-59.976562-7.15625 14.089843-19.8350 36.894531-31.578124 61.207031-31.574218h13.070312c27.371094-.042969 52.601563 14.792968 65.871094 38.730468zm-137.496094-81.558593 9.25-9.246094c19.351563-19.375 47.695313-26.707031 74.011719-19.144531l-57.398438 57.738281c-18.628906 6.855469-34.621093 19.410156-45.710937 35.875-4.503906-23.6875 2.925781-48.078350 19.878906-65.222656zm-53.339843-9.246094 9.246093 9.246094c4.3350 4.402343 8.054688 9.332031 11.136719 14.667969-4.386719 10.199218-6.890625 21.101562-7.398438 32.1875-8.691406-7.59375-18.703124-13.523438-29.53350-17.507813l-57.410156-57.738281c26.308594-7.558594 54.644532-.226563 73.984375 19.144531zm-62.386719 52.074219h13.074219c24.328124-.023438 47.164062 11.738281 61.269531 31.5625-20.226563-4.230469-41.285157-1.714844-59.945313 7.167968h-80.203350c13.265625-23.925781 38.476563-38.757812 65.835938-38.730468zm-25.910157 153.679687c-7.558593-26.304687-.226562-54.636719 19.144532-73.972656l9.246094-9.25c13.929687-13.894531 32.820312-21.671875 52.5-21.609375 7.261718.003906 14.484374 1.039062 21.457031 3.078350zm0 0"/></g></defs><g fi:class="KUsePattern" opacity="0.05"><pattern id="pattern_L1_0" width="350" height="350" patternUnits="userSpaceOnUse"><use xlink:href="#L1_0" x="-350" y="-350"/><use xlink:href="#L1_0" x="0" y="-350"/><use xlink:href="#L1_0" x="350" y="-350"/><use xlink:href="#L1_0" x="-350" y="0"/><use xlink:href="#L1_0" x="0" y="0"/><use xlink:href="#L1_0" x="350" y="0"/><use xlink:href="#L1_0" x="-350" y="350"/><use xlink:href="#L1_0" x="0" y="350"/><use xlink:href="#L1_0" x="350" y="350"/></pattern><rect x="0" y="0" width="100%" height="100%" fill="url(#pattern_L1_0)"/></g><g fi:class="KUsePattern" opacity="0.05"><pattern id="pattern_L1_1" width="350" height="350" patternUnits="userSpaceOnUse"><use xlink:href="#L1_1" x="-350" y="-350"/><use xlink:href="#L1_1" x="0" y="-350"/><use xlink:href="#L1_1" x="350" y="-350"/><use xlink:href="#L1_1" x="-350" y="0"/><use xlink:href="#L1_1" x="0" y="0"/><use xlink:href="#L1_1" x="350" y="0"/><use xlink:href="#L1_1" x="-350" y="350"/><use xlink:href="#L1_1" x="0" y="350"/><use xlink:href="#L1_1" x="350" y="350"/></pattern><rect x="0" y="0" width="100%" height="100%" fill="url(#pattern_L1_1)"/></g></svg>