<!DOCTYPE svg PUBLIC "-//W3C//DTD SVG 20010904//EN" "http://www.w3.org/TR/2001/REC-SVG-20010904/DTD/svg10.dtd">
<svg version="1.0" xmlns="http://www.w3.org/2000/svg" width="128px" height="128px" viewBox="0 0 1280 1280" preserveAspectRatio="xMidYMid meet">
<g id="layer101" fill="#ffffff" stroke="none">
 <path d="M40 625 l0 -345 79 0 c73 0 81 2 98 24 10 14 52 73 93 131 41 58 92 129 113 157 l37 52 0 -183 0 -182 88 3 87 3 3 334 c2 261 -1 336 -10 343 -7 4 -45 8 -85 8 l-72 0 -33 -47 c-18 -27 -36 -52 -40 -58 -14 -17 -152 -208 -173 -240 l-20 -30 -5 185 -5 185 -77 3 -78 3 0 -346z"/>
 <path d="M867 964 c-4 -4 -7 -126 -7 -271 l0 -263 -105 0 -105 0 0 -75 0 -75 298 2 297 3 0 70 0 70 -107 3 -108 3 -2 267 -3 267 -75 3 c-42 1 -79 0 -83 -4z"/>
 </g>

</svg>